<svg id="Group_32" data-name="Group 32" xmlns="http://www.w3.org/2000/svg" xmlns:xlink="http://www.w3.org/1999/xlink" width="24.918" height="30.086" viewBox="0 0 24.918 30.086">
  <defs>
    <clipPath id="clip-path">
      <rect id="Rectangle_184" data-name="Rectangle 184" width="24.918" height="30.086" fill="#fe6603"/>
    </clipPath>
  </defs>
  <g id="Group_30" data-name="Group 30" clip-path="url(#clip-path)">
    <path id="Path_234" data-name="Path 234" d="M3.9,3.212A7.139,7.139,0,0,1,5.064,7.218a8.718,8.718,0,0,1-.884,4.193l1.911-.631a7.862,7.862,0,0,0-.456.868,7.872,7.872,0,0,0-.654,2.063,2.575,2.575,0,0,0,2.23,2.949,2.608,2.608,0,0,0,3.019-1.4,4.065,4.065,0,0,0-.887-5.595c-.256-.228-.514-.452-.831-.732L9.98,8.019,8.012,7.424A22.359,22.359,0,0,0,12.364,0c.685,1.434,1.215,2.757,1.927,3.975S15.9,6.314,16.75,7.528l-1.859.406,1.544,1.071a9.273,9.273,0,0,1-.932.68c-1.638.9-1.945,4.175-.974,5.381a7.392,7.392,0,0,0,1.519,1.426,1.727,1.727,0,0,0,.973.253,2.847,2.847,0,0,0,2.749-3.881,16.345,16.345,0,0,0-1.008-2.109l1.667.548A36.294,36.294,0,0,1,19.859,7.3a5.348,5.348,0,0,1,1.056-3.91,11.319,11.319,0,0,0,4,11.265l-.176.148-1.879-.5c-.054.738-.053,1.455-.167,2.154a3.827,3.827,0,0,1-3.663,3.263,6.817,6.817,0,0,1-4.259-1.248,2.092,2.092,0,0,0-.845-.356c.257.4.509.8.771,1.188s.553.758.787,1.161a.751.751,0,0,1-.332,1.141,7.1,7.1,0,0,1-1.774.6,5.377,5.377,0,0,1-3.009-.246c-1.157-.468-1.34-1.193-.586-2.156.39-.5.74-1.027,1.108-1.542l-.132-.1c-.624.32-1.248.643-1.873.96a5.307,5.307,0,0,1-4.438.232,4.014,4.014,0,0,1-2.445-3.456,9.835,9.835,0,0,1-.014-1.611l-1.877.48L0,14.623A11.267,11.267,0,0,0,3.563,9.5,12.8,12.8,0,0,0,3.9,3.212M11.033,20.1h2.811l-1.425-2.92L11.033,20.1" fill="#fe6603"/>
    <path id="Path_235" data-name="Path 235" d="M90.5,212.948h2.534c-.07,1.3-.139,2.569-.21,3.874H90.754l-.251-3.874" transform="translate(-79.363 -186.736)" fill="#fe6603"/>
    <path id="Path_236" data-name="Path 236" d="M84.47,182.448h4.025c-.514.779-2.961.831-4.025,0" transform="translate(-74.073 -159.991)" fill="#fe6603"/>
    <path id="Path_237" data-name="Path 237" d="M85.481,188.576h3.576c-.4.726-2.435.8-3.576,0" transform="translate(-74.959 -165.364)" fill="#fe6603"/>
    <path id="Path_238" data-name="Path 238" d="M91.324,200.8c-.455.695-2.581.735-3.01,0Z" transform="translate(-77.443 -176.085)" fill="#fe6603"/>
    <path id="Path_239" data-name="Path 239" d="M91.431,194.5c-.7.806-2.9.727-3.213,0Z" transform="translate(-77.359 -170.557)" fill="#fe6603"/>
    <path id="Path_240" data-name="Path 240" d="M93.338,207.783c-.161.486-1.9.614-2.589,0Z" transform="translate(-79.579 -182.207)" fill="#fe6603"/>
  </g>
</svg>
