<?xml version="1.0" encoding="UTF-8"?>
<svg xmlns="http://www.w3.org/2000/svg" xmlns:xlink="http://www.w3.org/1999/xlink" viewBox="0 0 810 810">
  <defs>
    <style>
      .cls-1 {
        fill: url(#radial-gradient-3);
      }

      .cls-1, .cls-2, .cls-3, .cls-4, .cls-5, .cls-6, .cls-7, .cls-8, .cls-9, .cls-10, .cls-11 {
        stroke-width: 0px;
      }

      .cls-1, .cls-3 {
        mix-blend-mode: screen;
      }

      .cls-12 {
        clip-path: url(#clippath);
      }

      .cls-2 {
        fill: none;
      }

      .cls-13 {
        stroke: #000;
        stroke-miterlimit: 10;
        stroke-width: 3px;
      }

      .cls-3, .cls-9 {
        fill: #ff0;
      }

      .cls-14 {
        opacity: .39;
      }

      .cls-14, .cls-15 {
        mix-blend-mode: overlay;
      }

      .cls-4 {
        fill: url(#linear-gradient);
      }

      .cls-5 {
        fill: url(#radial-gradient);
      }

      .cls-16 {
        mix-blend-mode: multiply;
      }

      .cls-6 {
        fill: url(#radial-gradient-2);
      }

      .cls-17 {
        isolation: isolate;
      }

      .cls-7 {
        fill: #bf5630;
      }

      .cls-8 {
        fill: #fff;
      }

      .cls-10 {
        fill: #ffa912;
      }

      .cls-11 {
        fill: url(#Orange_Yellow_2);
        opacity: .3;
      }
    </style>
    <radialGradient id="radial-gradient" cx="405" cy="405.33" fx="405" fy="405.33" r="739.42" gradientUnits="userSpaceOnUse">
      <stop offset=".45" stop-color="#f99d1f"/>
      <stop offset=".53" stop-color="#f7931e"/>
    </radialGradient>
    <radialGradient id="radial-gradient-2" cx="405" cy="405.33" fx="405" fy="405.33" r="690.41" gradientUnits="userSpaceOnUse">
      <stop offset=".52" stop-color="#f7931d"/>
      <stop offset=".94" stop-color="#f6951e"/>
    </radialGradient>
    <linearGradient id="Orange_Yellow_2" data-name="Orange, Yellow 2" x1="25.46" y1="405.33" x2="784.54" y2="405.33" gradientUnits="userSpaceOnUse">
      <stop offset="0" stop-color="#cacaca"/>
      <stop offset=".28" stop-color="#c8c8c8"/>
      <stop offset=".67" stop-color="#bebebe"/>
      <stop offset=".89" stop-color="#b8b8b8"/>
      <stop offset="1" stop-color="#b4b4b4"/>
    </linearGradient>
    <radialGradient id="radial-gradient-3" cx="405" cy="405.33" fx="405" fy="405.33" r="887.92" gradientUnits="userSpaceOnUse">
      <stop offset=".1" stop-color="#fff87a"/>
      <stop offset=".13" stop-color="#f3ed74"/>
      <stop offset=".18" stop-color="#d5cf66"/>
      <stop offset=".25" stop-color="#a5a04e"/>
      <stop offset=".33" stop-color="#615e2e"/>
      <stop offset=".42" stop-color="#0c0c06"/>
      <stop offset=".43" stop-color="#000"/>
    </radialGradient>
    <clipPath id="clippath">
      <circle class="cls-2" cx="405" cy="405.33" r="378.25"/>
    </clipPath>
    <linearGradient id="linear-gradient" x1="364.9" y1="400.58" x2="422.74" y2="400.58" gradientUnits="userSpaceOnUse">
      <stop offset="0" stop-color="#ff2129"/>
      <stop offset="1" stop-color="#ff9c0f"/>
    </linearGradient>
  </defs>
  <g class="cls-17">
    <g id="Layer_1" data-name="Layer 1">
      <g>
        <g>
          <g class="cls-16">
            <circle class="cls-5" cx="405" cy="405.33" r="398.87"/>
            <path class="cls-2" d="m405,805.33c-54,0-106.38-10.58-155.7-31.43-47.63-20.15-90.41-48.99-127.14-85.72-36.73-36.73-65.58-79.51-85.72-127.14-20.86-49.31-31.43-101.7-31.43-155.7s10.58-106.38,31.43-155.7c20.15-47.63,48.99-90.41,85.72-127.14,36.74-36.74,79.51-65.58,127.14-85.72,49.31-20.86,101.7-31.43,155.7-31.43s106.38,10.58,155.7,31.43c47.63,20.15,90.41,48.99,127.14,85.72,36.73,36.73,65.58,79.51,85.72,127.14,20.86,49.31,31.43,101.7,31.43,155.7s-10.58,106.38-31.43,155.7c-20.15,47.63-48.99,90.41-85.72,127.14-36.74,36.73-79.51,65.58-127.14,85.72-49.31,20.86-101.7,31.43-155.7,31.43Zm0-797.74C185.69,7.59,7.26,186.02,7.26,405.33s178.42,397.74,397.74,397.74,397.74-178.42,397.74-397.74S624.31,7.59,405,7.59Z"/>
          </g>
          <g class="cls-16">
            <circle class="cls-6" cx="405" cy="405.33" r="378.25"/>
            <path class="cls-11" d="m405,784.87c-51.24,0-100.94-10.04-147.73-29.83-45.2-19.12-85.78-46.48-120.64-81.34-34.86-34.86-62.22-75.45-81.34-120.64-19.79-46.79-29.83-96.5-29.83-147.73s10.04-100.94,29.83-147.73c19.12-45.2,46.48-85.78,81.34-120.64,34.86-34.86,75.45-62.22,120.64-81.34,46.79-19.79,96.5-29.83,147.73-29.83s100.94,10.04,147.73,29.83c45.2,19.12,85.78,46.48,120.64,81.34,34.86,34.86,62.22,75.45,81.34,120.64,19.79,46.79,29.83,96.5,29.83,147.73s-10.04,100.94-29.83,147.73c-19.12,45.19-46.48,85.78-81.34,120.64-34.86,34.86-75.45,62.22-120.64,81.34-46.79,19.79-96.5,29.83-147.73,29.83Zm0-756.5C197.14,28.37,28.04,197.48,28.04,405.33s169.1,376.96,376.96,376.96,376.96-169.1,376.96-376.96S612.86,28.37,405,28.37Z"/>
          </g>
          <circle class="cls-1" cx="405" cy="405.33" r="378.25"/>
          <g class="cls-12">
            <g class="cls-15">
              <g class="cls-14">
                <g>
                  <polygon class="cls-9" points="401.16 359.46 464.47 82.26 409.56 361.25 401.16 359.46"/>
                  <polygon class="cls-9" points="401.43 358.61 520.99 100.63 409.28 362.1 401.43 358.61"/>
                  <polygon class="cls-9" points="401.88 357.83 572.46 130.35 408.83 362.88 401.88 357.83"/>
                  <polygon class="cls-9" points="402.48 357.16 616.63 170.12 408.23 363.54 402.48 357.16"/>
                  <polygon class="cls-9" points="403.21 356.63 651.57 218.2 407.5 364.07 403.21 356.63"/>
                  <polygon class="cls-9" points="404.03 356.27 675.74 272.5 406.68 364.44 404.03 356.27"/>
                  <polygon class="cls-9" points="404.91 356.08 688.1 330.64 405.8 364.62 404.91 356.08"/>
                  <polygon class="cls-9" points="405.8 356.08 688.1 390.07 404.91 364.62 405.8 356.08"/>
                  <polygon class="cls-9" points="406.68 356.27 675.74 448.21 404.03 364.44 406.68 356.27"/>
                  <polygon class="cls-9" points="407.5 356.63 651.57 502.5 403.21 364.07 407.5 356.63"/>
                  <polygon class="cls-9" points="408.23 357.16 616.63 550.59 402.48 363.54 408.23 357.16"/>
                  <polygon class="cls-9" points="408.83 357.83 572.46 590.36 401.88 362.88 408.83 357.83"/>
                  <polygon class="cls-9" points="409.28 358.61 520.99 620.07 401.43 362.1 409.28 358.61"/>
                  <polygon class="cls-9" points="409.56 359.46 464.47 638.44 401.16 361.25 409.56 359.46"/>
                  <polygon class="cls-9" points="409.65 360.35 405.36 644.65 401.06 360.35 409.65 360.35"/>
                  <polygon class="cls-9" points="409.56 361.25 346.25 638.44 401.16 359.46 409.56 361.25"/>
                  <polygon class="cls-9" points="409.28 362.1 289.72 620.07 401.43 358.61 409.28 362.1"/>
                  <polygon class="cls-9" points="408.83 362.88 238.25 590.36 401.88 357.83 408.83 362.88"/>
                  <polygon class="cls-9" points="408.23 363.54 194.08 550.59 402.48 357.16 408.23 363.54"/>
                  <polygon class="cls-9" points="407.5 364.07 159.14 502.5 403.21 356.63 407.5 364.07"/>
                  <polygon class="cls-9" points="406.68 364.44 134.97 448.21 404.03 356.27 406.68 364.44"/>
                  <polygon class="cls-9" points="405.8 364.62 122.61 390.07 404.91 356.08 405.8 364.62"/>
                  <polygon class="cls-9" points="404.91 364.62 122.61 330.64 405.8 356.08 404.91 364.62"/>
                  <polygon class="cls-9" points="404.03 364.44 134.97 272.5 406.68 356.27 404.03 364.44"/>
                  <polygon class="cls-9" points="403.21 364.07 159.14 218.2 407.5 356.63 403.21 364.07"/>
                  <polygon class="cls-9" points="402.48 363.54 194.08 170.12 408.23 357.16 402.48 363.54"/>
                  <polygon class="cls-9" points="401.88 362.88 238.25 130.35 408.83 357.83 401.88 362.88"/>
                  <polygon class="cls-9" points="401.43 362.1 289.72 100.63 409.28 358.61 401.43 362.1"/>
                  <polygon class="cls-9" points="401.16 361.25 346.25 82.26 409.56 359.46 401.16 361.25"/>
                  <polygon class="cls-9" points="401.06 360.35 405.36 76.05 409.65 360.35 401.06 360.35"/>
                </g>
              </g>
              <circle class="cls-3" cx="404.65" cy="360.22" r="80.35"/>
            </g>
          </g>
        </g>
        <g>
          <g>
            <g>
              <path class="cls-8" d="m226.32,597.11c0-.99.22-1.89.68-2.71.45-.81,1.22-1.76,2.3-2.84,2.07-1.89,3.43-3.27,4.06-4.13.63-.86,1.1-1.98,1.42-3.38.31-1.4.88-4.35,1.69-8.86l8.25-48.15c.36-2.25,1.91-4.51,4.67-6.76,2.75-2.25,5.21-3.38,7.37-3.38.99,0,1.49.23,1.49.68,0,.27-.43,1.04-1.28,2.3-.86,1.26-1.51,3.38-1.96,6.36l-4.06,25.83c1.26.27,3.25.4,5.95.4,4.33,0,8.18-1.01,11.56-3.04,3.38-2.03,6.02-4.8,7.91-8.32,1.89-3.52,2.84-7.44,2.84-11.77,0-6.13-1.89-10.8-5.68-14-3.79-3.2-9.2-4.8-16.23-4.8-5.41,0-10.41.99-15.01,2.97-4.6,1.98-8.66,4.96-12.17,8.93-.81,1.08-1.44,1.83-1.89,2.23-.45.41-.95.61-1.49.61s-.81-.31-.81-.95l.14-1.49c.81-3.33,2.84-6.51,6.09-9.53,3.25-3.02,7.44-5.45,12.58-7.3,5.14-1.85,10.77-2.77,16.91-2.77,8.56,0,15.42,1.92,20.56,5.75,5.14,3.83,7.71,9.13,7.71,15.89,0,5.95-1.98,11.52-5.95,16.7-3.97,5.19-9.08,9.42-15.35,12.71-6.27,3.29-12.74,5.21-19.41,5.75l-3.92,23.53c-.45,2.35-1.31,4.24-2.57,5.68v.14c.45.18,1.13.43,2.03.74.9.32,1.8.47,2.7.47,1.08,0,2.19-.25,3.31-.74,1.13-.49,1.87-.74,2.23-.74.54,0,.81.32.81.95,0,.81-.54,1.76-1.62,2.84-3.43,3.7-6.18,5.55-8.25,5.55-.81,0-2.3-.36-4.46-1.08-2.89-.81-4.78-1.22-5.68-1.22-1.35,0-2.75.38-4.19,1.15-1.44.77-2.3,1.15-2.57,1.15-.45,0-.68-.45-.68-1.35Z"/>
              <path class="cls-8" d="m300.3,591.3c0-2.79.45-6.76,1.35-11.9l4.6-27.86c.36-3.25.54-5.09.54-5.55,0-1.35-.36-2.03-1.08-2.03-2.08,0-4.51,2.7-7.3,8.11-.18.36-.47.97-.88,1.83-.41.86-.74,1.4-1.01,1.62-.27.23-.54.34-.81.34-.18,0-.36-.16-.54-.47-.18-.32-.27-.7-.27-1.15,0-1.8.92-4.35,2.77-7.64,1.85-3.29,4.12-6.2,6.83-8.72,2.7-2.52,5.27-3.79,7.71-3.79,1.44,0,2.59.61,3.45,1.83.86,1.22,1.28,2.86,1.28,4.94,0,1.35-.09,2.39-.27,3.11l-6.36,39.9c-.18,1.26-.27,2.08-.27,2.43,0,1.89.72,2.84,2.16,2.84,2.98,0,6.2-2.01,9.67-6.02,3.47-4.01,6.54-8.81,9.2-14.4,2.66-5.59,4.4-10.5,5.21-14.74l1.89-9.87c.72-3.25,2.19-5.72,4.4-7.44,2.21-1.71,4.26-2.57,6.15-2.57.72,0,1.08.23,1.08.68,0,.27-.18.79-.54,1.55-.36.77-.63,1.69-.81,2.77-1.26,5.59-3.74,18.57-7.44,38.95l-.81,4.33c-.63,3.16-.95,5.09-.95,5.82,0,1.26.41,1.89,1.22,1.89,1.44,0,3.04-1.15,4.8-3.45,1.76-2.3,3.18-4.8,4.26-7.51.54-.99.99-1.49,1.35-1.49.54,0,.81.4.81,1.22,0,.99-.09,1.85-.27,2.57-.63,3.25-1.89,6.27-3.79,9.06-1.89,2.8-4.01,5.05-6.36,6.76-2.35,1.71-4.51,2.57-6.49,2.57-3.52,0-5.19-2.79-5-8.38.18-2.43.72-5.72,1.62-9.87l1.22-6.63h-.14c-4.69,7.49-9.47,13.5-14.34,18.06-4.87,4.55-8.93,6.83-12.17,6.83-3.79,0-5.68-2.84-5.68-8.52Z"/>
              <path class="cls-8" d="m333.16,649.72c-2.79-1.8-4.87-3.97-6.22-6.49-1.35-2.53-2.03-4.87-2.03-7.03s.7-4.15,2.1-5.95c1.4-1.8,3.09-3.07,5.07-3.79.54-.18.86-.27.95-.27.27,0,.45.14.54.41.09.27.14.63.14,1.08.36,5.95,1.67,10.57,3.92,13.86,2.25,3.29,5.59,4.94,10.01,4.94,3.34,0,6.09-1.11,8.25-3.31,2.16-2.21,3.94-5.64,5.34-10.28,1.4-4.64,2.73-10.98,3.99-19l9.74-63.56c.36-2.34.54-3.79.54-4.33,0-1.35-.41-2.03-1.22-2.03-1.08,0-2.39.86-3.92,2.57-1.53,1.71-3.2,4.42-5,8.11-.36,1.08-.81,1.62-1.35,1.62s-.81-.45-.81-1.35c0-2.16.97-4.94,2.91-8.32,1.94-3.38,4.33-6.31,7.17-8.79,2.84-2.48,5.48-3.72,7.91-3.72,2.79,0,4.19,1.98,4.19,5.95,0,1.89-.27,4.37-.81,7.44l-8.79,58.42c-2.25,15.24-6.09,26.8-11.5,34.69-5.41,7.89-12.26,11.83-20.56,11.83-4.24,0-7.75-.9-10.55-2.71Zm45.58-124.69l1.62-9.47c.45-2.61,1.42-4.62,2.91-6.02,1.49-1.4,3.36-2.1,5.61-2.1h.54c.54,0,.88.09,1.01.27.14.18.16.54.07,1.08l-1.49,9.33c-.36,2.53-1.31,4.53-2.84,6.02-1.53,1.49-3.43,2.23-5.68,2.23h-.54c-.9,0-1.31-.45-1.22-1.35Z"/>
              <path class="cls-8" d="m394.02,586.7c0-8.38,1.83-16.66,5.48-24.82,3.65-8.16,8.59-14.83,14.81-20.02,6.22-5.18,12.94-7.78,20.15-7.78,3.7,0,6.9.59,9.6,1.76-1.17,4.6-1.98,7.98-2.43,10.14l-2.84,14.61c-2.53,11.54-4.06,19.52-4.6,23.94-.09.63-.14,1.4-.14,2.3,0,1.98.59,2.97,1.76,2.97,1.44,0,2.79-.92,4.06-2.77,1.26-1.85,2.71-4.48,4.33-7.91.09-.09.25-.36.47-.81.22-.45.52-.68.88-.68.54,0,.81.54.81,1.62l-.27,2.16c-.63,2.98-1.92,5.91-3.85,8.79-1.94,2.89-4.1,5.21-6.49,6.96-2.39,1.76-4.53,2.64-6.42,2.64-3.16,0-4.73-2.57-4.73-7.71,0-1.98.22-4.01.68-6.09l2.3-11.77h-.14c-4.33,7.57-8.95,13.73-13.86,18.46-4.92,4.73-9.13,7.1-12.65,7.1-4.6,0-6.9-4.37-6.9-13.12Zm21.98-3.85c3.29-3.92,6.36-8.72,9.2-14.4s4.8-10.77,5.88-15.28l2.16-8.66c-2.7-1.8-5.55-2.7-8.52-2.7-3.88,0-7.42,2.23-10.62,6.69-3.2,4.46-5.7,9.87-7.51,16.23-1.8,6.36-2.7,12.1-2.7,17.24,0,2.25.25,3.95.74,5.07.49,1.13,1.37,1.69,2.64,1.69,2.52,0,5.43-1.96,8.72-5.88Z"/>
            </g>
            <path class="cls-8" d="m583.26,621.03h-68.07l-7.39-10.07c-3.58-4.87-6.66-8.14-9.25-9.8-2.59-1.66-6.91-2.49-12.95-2.49h-4.2l2.49,6.61h5.29c4.46,0,7.85.47,10.18,1.42,2.33.95,4.82,3.14,7.46,6.59l5.91,7.74h-102.79l4.39,5.52h5.99v10.07c0,2.23-.73,3.97-2.18,5.23-1.45,1.26-3.33,1.89-5.64,1.89s-5.78-1.02-10.5-3.07c2.13-.88,3.84-1.97,5.15-3.27s1.96-3.12,1.96-5.48c0-3.27-1.19-5.9-3.58-7.89-2.38-2-5.62-2.99-9.72-2.99-3.53,0-7.02.79-10.5,2.37l3.46,4.86c5.6-2.57,9.36-3.85,11.27-3.85s3.35.46,4.45,1.38c1.1.92,1.65,2.12,1.65,3.6,0,2-1.34,3.78-4.02,5.36-2.68,1.58-6.59,2.58-11.72,2.99l4.28,5.17c1.3-.52,2.62-.78,3.97-.78,2.33,0,4.35.69,6.06,2.08,1.71,1.39,2.57,2.99,2.57,4.8,0,2-.76,3.7-2.27,5.11s-3.26,2.12-5.23,2.12c-2.95,0-5.59-1.17-7.89-3.52-2.31-2.35-3.89-5.58-4.74-9.7h-1.94c.78,5.49,2.74,9.97,5.89,13.41,3.15,3.45,6.55,5.17,10.2,5.17,3.01,0,5.52-.93,7.54-2.8,2.02-1.87,3.03-4.29,3.03-7.27v-2.41h2.26c1.94,0,4-.41,6.18-1.24v17.73l4.24,5.25,1.79.04v-44.36h11.08v38.91l4.66,5.4h1.44v-44.32h23.48c1.81,1.74,2.72,3.84,2.72,6.3,0,3.11-1.01,5.54-3.03,7.29-2.02,1.75-5.05,2.81-9.1,3.17v.78c4.56,5.13,8.18,8.59,10.87,10.38s5.31,2.68,7.87,2.68c3.55,0,6.49-.95,8.82-2.84v11.2l5.29,5.29h.82v-44.24h19.36v38.84l4.66,5.4h1.44v-44.24h48.59v9.25h-22.66c4.9,4.82,7.78,8.04,8.65,9.66.87,1.62,1.3,3.01,1.3,4.18,0,1.56-.49,2.81-1.48,3.75-.98.95-2.26,1.42-3.81,1.42-2.1,0-4.5-1.27-7.21-3.81-2.71-2.54-5.55-7.2-8.53-14l-1.56.93c2.51,7.05,5.41,12.58,8.69,16.58,3.28,4,6.63,6.01,10.05,6.01,2.77,0,5.06-.9,6.86-2.7,1.8-1.8,2.7-4.06,2.7-6.78,0-2.95-1.74-6.21-5.21-9.76h12.21v24.61l4.51,4.9h1.63v-44.24h40.47v11.7h-21.58c-1.27,0-2.38.45-3.34,1.34-.96.89-1.44,2.07-1.44,3.52,0,2.07,1.16,4.87,3.48,8.4,2.32,3.52,4.06,5.29,5.23,5.29.98,0,1.48-.58,1.48-1.75,0-.86-.04-1.66-.12-2.41-.18-1.32-.27-2.53-.27-3.62,0-2.15.2-3.57.6-4.26.4-.69,1.52-1.03,3.36-1.03h12.6v21.65l5.29,5.29h.82v-44.12h11.82v-5.52h-46.61Zm-98.08,18.97c0,3.37-.26,5.64-.78,6.8s-1.86,2.46-4.02,3.89c-2.16,1.43-4.54,2.14-7.13,2.14-1.43,0-2.95-.41-4.57-1.24-1.62-.83-3.35-2.09-5.19-3.77,3.81-.88,6.67-2.31,8.57-4.3,1.91-1.98,2.86-4.5,2.86-7.56,0-3.73-1.85-6.87-5.56-9.41h15.82v13.45Z"/>
          </g>
          <g>
            <path class="cls-13" d="m220.8,595.62c0-.99.22-1.89.68-2.71.45-.81,1.22-1.76,2.3-2.84,2.07-1.89,3.43-3.27,4.06-4.13.63-.86,1.1-1.98,1.42-3.38.31-1.4.88-4.35,1.69-8.86l8.25-48.15c.36-2.25,1.91-4.51,4.67-6.76,2.75-2.25,5.21-3.38,7.37-3.38.99,0,1.49.23,1.49.68,0,.27-.43,1.04-1.28,2.3-.86,1.26-1.51,3.38-1.96,6.36l-4.06,25.83c1.26.27,3.25.4,5.95.4,4.33,0,8.18-1.01,11.56-3.04,3.38-2.03,6.02-4.8,7.91-8.32,1.89-3.52,2.84-7.44,2.84-11.77,0-6.13-1.89-10.8-5.68-14-3.79-3.2-9.2-4.8-16.23-4.8-5.41,0-10.41.99-15.01,2.97-4.6,1.98-8.66,4.96-12.17,8.93-.81,1.08-1.44,1.83-1.89,2.23-.45.41-.95.61-1.49.61s-.81-.31-.81-.95l.14-1.49c.81-3.33,2.84-6.51,6.09-9.53,3.25-3.02,7.44-5.45,12.58-7.3,5.14-1.85,10.77-2.77,16.91-2.77,8.56,0,15.42,1.92,20.56,5.75,5.14,3.83,7.71,9.13,7.71,15.89,0,5.95-1.98,11.52-5.95,16.7-3.97,5.19-9.08,9.42-15.35,12.71-6.27,3.29-12.74,5.21-19.41,5.75l-3.92,23.53c-.45,2.35-1.31,4.24-2.57,5.68v.14c.45.18,1.13.43,2.03.74.9.32,1.8.47,2.7.47,1.08,0,2.19-.25,3.31-.74,1.13-.49,1.87-.74,2.23-.74.54,0,.81.32.81.95,0,.81-.54,1.76-1.62,2.84-3.43,3.7-6.18,5.55-8.25,5.55-.81,0-2.3-.36-4.46-1.08-2.89-.81-4.78-1.22-5.68-1.22-1.35,0-2.75.38-4.19,1.15-1.44.77-2.3,1.15-2.57,1.15-.45,0-.68-.45-.68-1.35Z"/>
            <path class="cls-13" d="m294.78,589.81c0-2.79.45-6.76,1.35-11.9l4.6-27.86c.36-3.25.54-5.09.54-5.55,0-1.35-.36-2.03-1.08-2.03-2.08,0-4.51,2.7-7.3,8.11-.18.36-.47.97-.88,1.83-.41.86-.74,1.4-1.01,1.62-.27.23-.54.34-.81.34-.18,0-.36-.16-.54-.47-.18-.32-.27-.7-.27-1.15,0-1.8.92-4.35,2.77-7.64,1.85-3.29,4.12-6.2,6.83-8.72,2.7-2.52,5.27-3.79,7.71-3.79,1.44,0,2.59.61,3.45,1.83.86,1.22,1.28,2.86,1.28,4.94,0,1.35-.09,2.39-.27,3.11l-6.36,39.9c-.18,1.26-.27,2.08-.27,2.43,0,1.89.72,2.84,2.16,2.84,2.98,0,6.2-2.01,9.67-6.02,3.47-4.01,6.54-8.81,9.2-14.4,2.66-5.59,4.4-10.5,5.21-14.74l1.89-9.87c.72-3.25,2.19-5.72,4.4-7.44,2.21-1.71,4.26-2.57,6.15-2.57.72,0,1.08.23,1.08.68,0,.27-.18.79-.54,1.55-.36.77-.63,1.69-.81,2.77-1.26,5.59-3.74,18.57-7.44,38.95l-.81,4.33c-.63,3.16-.95,5.09-.95,5.82,0,1.26.41,1.89,1.22,1.89,1.44,0,3.04-1.15,4.8-3.45,1.76-2.3,3.18-4.8,4.26-7.51.54-.99.99-1.49,1.35-1.49.54,0,.81.4.81,1.22,0,.99-.09,1.85-.27,2.57-.63,3.25-1.89,6.27-3.79,9.06-1.89,2.8-4.01,5.05-6.36,6.76-2.35,1.71-4.51,2.57-6.49,2.57-3.52,0-5.19-2.79-5-8.38.18-2.43.72-5.72,1.62-9.87l1.22-6.63h-.14c-4.69,7.49-9.47,13.5-14.34,18.06-4.87,4.55-8.93,6.83-12.17,6.83-3.79,0-5.68-2.84-5.68-8.52Z"/>
            <path class="cls-13" d="m327.64,648.23c-2.79-1.8-4.87-3.97-6.22-6.49-1.35-2.53-2.03-4.87-2.03-7.03s.7-4.15,2.1-5.95c1.4-1.8,3.09-3.07,5.07-3.79.54-.18.86-.27.95-.27.27,0,.45.14.54.41.09.27.14.63.14,1.08.36,5.95,1.67,10.57,3.92,13.86,2.25,3.29,5.59,4.94,10.01,4.94,3.34,0,6.09-1.11,8.25-3.31,2.16-2.21,3.94-5.64,5.34-10.28,1.4-4.64,2.73-10.98,3.99-19l9.74-63.56c.36-2.34.54-3.79.54-4.33,0-1.35-.41-2.03-1.22-2.03-1.08,0-2.39.86-3.92,2.57-1.53,1.71-3.2,4.42-5,8.11-.36,1.08-.81,1.62-1.35,1.62s-.81-.45-.81-1.35c0-2.16.97-4.94,2.91-8.32,1.94-3.38,4.33-6.31,7.17-8.79,2.84-2.48,5.48-3.72,7.91-3.72,2.79,0,4.19,1.98,4.19,5.95,0,1.89-.27,4.37-.81,7.44l-8.79,58.42c-2.25,15.24-6.09,26.8-11.5,34.69-5.41,7.89-12.26,11.83-20.56,11.83-4.24,0-7.75-.9-10.55-2.71Zm45.58-124.69l1.62-9.47c.45-2.61,1.42-4.62,2.91-6.02,1.49-1.4,3.36-2.1,5.61-2.1h.54c.54,0,.88.09,1.01.27.14.18.16.54.07,1.08l-1.49,9.33c-.36,2.53-1.31,4.53-2.84,6.02-1.53,1.49-3.43,2.23-5.68,2.23h-.54c-.9,0-1.31-.45-1.22-1.35Z"/>
            <path class="cls-13" d="m388.5,585.21c0-8.38,1.83-16.66,5.48-24.82,3.65-8.16,8.59-14.83,14.81-20.02,6.22-5.18,12.94-7.78,20.15-7.78,3.7,0,6.9.59,9.6,1.76-1.17,4.6-1.98,7.98-2.43,10.14l-2.84,14.61c-2.53,11.54-4.06,19.52-4.6,23.94-.09.63-.14,1.4-.14,2.3,0,1.98.59,2.97,1.76,2.97,1.44,0,2.79-.92,4.06-2.77,1.26-1.85,2.71-4.48,4.33-7.91.09-.09.25-.36.47-.81.22-.45.52-.68.88-.68.54,0,.81.54.81,1.62l-.27,2.16c-.63,2.98-1.92,5.91-3.85,8.79-1.94,2.89-4.1,5.21-6.49,6.96-2.39,1.76-4.53,2.64-6.42,2.64-3.16,0-4.73-2.57-4.73-7.71,0-1.98.22-4.01.68-6.09l2.3-11.77h-.14c-4.33,7.57-8.95,13.73-13.86,18.46-4.92,4.73-9.13,7.1-12.65,7.1-4.6,0-6.9-4.37-6.9-13.12Zm21.98-3.85c3.29-3.92,6.36-8.72,9.2-14.4s4.8-10.77,5.88-15.28l2.16-8.66c-2.7-1.8-5.55-2.7-8.52-2.7-3.88,0-7.42,2.23-10.62,6.69-3.2,4.46-5.7,9.87-7.51,16.23-1.8,6.36-2.7,12.1-2.7,17.24,0,2.25.25,3.95.74,5.07.49,1.13,1.37,1.69,2.64,1.69,2.52,0,5.43-1.96,8.72-5.88Z"/>
          </g>
          <path class="cls-13" d="m577.74,619.54h-68.07l-7.39-10.07c-3.58-4.87-6.66-8.14-9.25-9.8-2.59-1.66-6.91-2.49-12.95-2.49h-4.2l2.49,6.61h5.29c4.46,0,7.85.47,10.18,1.42,2.33.95,4.82,3.14,7.46,6.59l5.91,7.74h-102.79l4.39,5.52h5.99v10.07c0,2.23-.73,3.97-2.18,5.23-1.45,1.26-3.33,1.89-5.64,1.89s-5.78-1.02-10.5-3.07c2.13-.88,3.84-1.97,5.15-3.27s1.96-3.12,1.96-5.48c0-3.27-1.19-5.9-3.58-7.89-2.38-2-5.62-2.99-9.72-2.99-3.53,0-7.02.79-10.5,2.37l3.46,4.86c5.6-2.57,9.36-3.85,11.27-3.85s3.35.46,4.45,1.38c1.1.92,1.65,2.12,1.65,3.6,0,2-1.34,3.78-4.02,5.36-2.68,1.58-6.59,2.58-11.72,2.99l4.28,5.17c1.3-.52,2.62-.78,3.97-.78,2.33,0,4.35.69,6.06,2.08,1.71,1.39,2.57,2.99,2.57,4.8,0,2-.76,3.7-2.27,5.11s-3.26,2.12-5.23,2.12c-2.95,0-5.59-1.17-7.89-3.52-2.31-2.35-3.89-5.58-4.74-9.7h-1.94c.78,5.49,2.74,9.97,5.89,13.41,3.15,3.45,6.55,5.17,10.2,5.17,3.01,0,5.52-.93,7.54-2.8,2.02-1.87,3.03-4.29,3.03-7.27v-2.41h2.26c1.94,0,4-.41,6.18-1.24v17.73l4.24,5.25,1.79.04v-44.36h11.08v38.91l4.66,5.4h1.44v-44.32h23.48c1.81,1.74,2.72,3.84,2.72,6.3,0,3.11-1.01,5.54-3.03,7.29-2.02,1.75-5.05,2.81-9.1,3.17v.78c4.56,5.13,8.18,8.59,10.87,10.38s5.31,2.68,7.87,2.68c3.55,0,6.49-.95,8.82-2.84v11.2l5.29,5.29h.82v-44.24h19.36v38.84l4.66,5.4h1.44v-44.24h48.59v9.25h-22.66c4.9,4.82,7.78,8.04,8.65,9.66.87,1.62,1.3,3.01,1.3,4.18,0,1.56-.49,2.81-1.48,3.75-.98.95-2.26,1.42-3.81,1.42-2.1,0-4.5-1.27-7.21-3.81-2.71-2.54-5.55-7.2-8.53-14l-1.56.93c2.51,7.05,5.41,12.58,8.69,16.58,3.28,4,6.63,6.01,10.05,6.01,2.77,0,5.06-.9,6.86-2.7,1.8-1.8,2.7-4.06,2.7-6.78,0-2.95-1.74-6.21-5.21-9.76h12.21v24.61l4.51,4.9h1.63v-44.24h40.47v11.7h-21.58c-1.27,0-2.38.45-3.34,1.34-.96.89-1.44,2.07-1.44,3.52,0,2.07,1.16,4.87,3.48,8.4,2.32,3.52,4.06,5.29,5.23,5.29.98,0,1.48-.58,1.48-1.75,0-.86-.04-1.66-.12-2.41-.18-1.32-.27-2.53-.27-3.62,0-2.15.2-3.57.6-4.26.4-.69,1.52-1.03,3.36-1.03h12.6v21.65l5.29,5.29h.82v-44.12h11.82v-5.52h-46.61Zm-98.08,18.97c0,3.37-.26,5.64-.78,6.8s-1.86,2.46-4.02,3.89c-2.16,1.43-4.54,2.14-7.13,2.14-1.43,0-2.95-.41-4.57-1.24-1.62-.83-3.35-2.09-5.19-3.77,3.81-.88,6.67-2.31,8.57-4.3,1.91-1.98,2.86-4.5,2.86-7.56,0-3.73-1.85-6.87-5.56-9.41h15.82v13.45Z"/>
        </g>
        <g>
          <g>
            <path class="cls-7" d="m315.42,456.77c3.02-3.3,5.1-7.75,5.2-13.91.18-10.86-10.89-14.47-23.61-14.39h0s0,0,0,0c-7.62.04-15.84,1.41-22.58,3.33,0,0,1.76-18.89.06-40.96,0-.02.02-.04.02-.07,0,0,0,0,0,0,6.36-16.72,10.39-48.29,10.39-48.29-.48,0-.95,0-1.43-.02.11-.78.16-1.22.16-1.22-1.43,0-2.84-.05-4.22-.16.61-4.08,2.39-9.56,3.35-14.63.96-5.11.24-15.61-3.91-18.51-.84-1.1-1.88-1.82-3.14-1.97-5.8-.7-7.59,14.63-7.59,14.63,0,0-1.21-1.83-1.69,1.12-.48,2.95,1.16,11.25,1.3,13.05.12,1.44-.24,3.4-.38,4.12-2.62-.73-4.24-1.35-4.24-1.35.12,1.21.15,2.54.13,3.95-6.63-16.61-10.97-18.12-11.77-21.3,1.02.28.43-5.58.36-6.07,0-.04-.04-.09-.08-.14,0-2.91,2.65-9.87,4.12-10.63,2.62-1.35,6.17.25,8.61-1.42,1.77-1.22,1.65-3.71,2.1-5.5.5-2.02,2.57-2.68,2.37-3.93-.39-2.39.01-3.99.14-4.26.31-.69,2.09-.79,3.35-1.96,1.51-1.4-2.62-6.48-3.94-9.22-1.33-2.74-.16-4.11.23-6.02.32-1.58-3.88-9.95-5.33-12.77.01,0,.03-.02.04-.02,5.59-3.16-5.64-15.22-22.49-11.51-16.85,3.7-21.51,14.28-21.49,25.51.03,12.39-5.27,19.55-5.27,24.48,0,4.26,7.85,3.62,16.23,5.75-2.68,1.6-2.35,2.67-2.35,2.67,0,0,0,0,0,0-4.86,5.22-14.91,18.14-16.69,37.13-2.37,25.21-3.01,55.05-10.76,81.11,0,0-4.73,16.53-6.81,22.34-.99,2.77,3,5.48,8.43,7.19,0,0,0,0,0,0,0,0-.11,15.71,18.54,18.52,15.08,2.27,48.8-.32,65.87-2.88-.17.79-.19,1.77.47,2.49,1.29,1.41,32.27,3.3,34.1-4.79,1.16-5.11-.79-8.82-5.81-9.49Z"/>
            <path class="cls-7" d="m616.31,450.47c-1.17-29.65-14.16-42.4-14.16-42.4.38-2.13-.23-4.53-.23-4.54-.29-12.26,1.06-34.91.23-56.13-.85-21.87-6.61-29.85-14.42-34.25,0,0,0,0,0,0,6.47.73,6.69-4.97,4.81-9.91.97-.86,1.49-2.53,1.34-5.45-.63-12-5.2-11.84-4.88-24.92.32-13.07-2.52-9.23-3.94-17.38-.95-5.46-3.88-6.99-5.42-10.51.04-.2.04-.42,0-.63-.08-.36-.28-.68-.54-.92-.08-.29-.15-.59-.21-.92.41-.39.62-.97.49-1.56-.1-.46-.37-.84-.71-1.09,0-.68.02-1.41.1-2.21.94-10.3-12.6-10.15-16.69-7.54-2.53,1.62-4.22,5.5-5.63,8.75-.25.19-.46.44-.61.75-.14.29-.17.61-.12.91-.16.36-.32.7-.47,1.01-.44.18-.81.51-1.02.98-.12.28-.14.57-.09.86-.03.04-.06.08-.09.12-2.05,2.23-10.98,3.27-10.83,10.11.06,2.46,1.45,3.84,3.39,4.55-.13.08-.25.15-.38.24,0,0-6.52,11.09-6.13,13.02.39,1.92,1.57,3.31.24,6.08-1.34,2.77-5.12,8.84-3.54,9.61,1.57.77,2.83.92,3.15,1.61.32.69-.01,9.4,2,11.24,0,0,0,0,0,0-7.53,4.91-15.02,25.34-18.7,46.51-2.39,13.71,1.85,15.49,6.95,11.28-.36,2-.68,4.05-.95,6.17-7.07-4.94-15.16-11.49-20.57-18.63.02-.14.03-.28.01-.42-.05-.5-.3-.91-.72-1.16-.18-.11-.38-.17-.58-.21-.27-.39-.53-.78-.78-1.18.03-.17.05-.35.03-.52-.05-.49-.3-.91-.72-1.15-.12-.07-.26-.12-.39-.16-.44-.79-.84-1.59-1.19-2.39-8.01-18.27,3.15-22.25-5.94-36.07-.5-.77-2.34-2.11-4.43-1.25-2.09.86.02,9.07-1.64,16.76-1.66,7.68-5.55,22.48,2.04,27.47.95.62,1.83,1.5,2.69,2.58,0,.32.07.64.26.93.2.32.52.53.88.64.26.39.52.79.78,1.22-.05.37.01.76.22,1.1.18.31.47.52.8.64,4.28,7.57,9.07,19.15,19.09,29.37-8.76,9.93-18.66,17.97-26.7,24.99-.45-.02-.93.13-1.31.46-.38.33-.59.78-.61,1.23-.32.29-.64.57-.95.85-.42.02-.84.17-1.18.48-.34.31-.53.71-.57,1.11-3.01,2.78-5.59,5.42-7.5,7.96-7.24,9.5-10.14,17.37-12.43,23.63-1.82,4.95-2.01,11.31.77,9.93.41-.2.97-.64,1.63-1.26.43.6.91,1.19,1.44,1.78-11.5-.79-9.55,14.51-.64,18.41,8.13,3.56,31.48,6.1,33.7,2.69.95-1.46,1.37-2.7,1.33-3.83,6.3,1.63,13.06,2.85,20.01,3.53,33.56,3.28,91.36,5.69,90.23-23.01Zm-118.47-29.38c.18.15.38.25.59.32-.98.05-1.95.13-2.93.25.58-.48,1.19-.96,1.81-1.45.07.33.24.64.53.88Zm1.67.27c.29-.11.56-.29.76-.54.6-.76.54-1.78-.12-2.35-.08-.07-.17-.13-.26-.18.04-.03.08-.06.12-.08.09.16.2.31.36.44.72.62,1.84.49,2.43-.26.54-.69.55-1.58.07-2.16,8.28-5.57,18.31-11.02,26.54-16.05,0,.01,0,.03,0,.04,0,0,0,0,0,0,0,0,0,0,0,0,.7,7.73,1.77,14.06,2.71,18.62.09,1.96,1.06,4.71,1.06,4.71-8.73-.9-20.63-2.55-33.67-2.18Z"/>
          </g>
          <g>
            <path class="cls-4" d="m421.8,421.11h0c1.17-3.82,1.11-7.7.53-11.58-.37-2.45-1.37-4.74-2.23-7.05-.82-.88-.93-2.19-1.89-2.98-1.72-2.93-3.83-5.57-6.08-8.12-.08-.09-.16-.18-.25-.27,0,0,0,0,0,0-1.92-2.75-3.9-5.46-5.56-8.37-.07-.09-.14-.19-.21-.28,0,0,0,0,0,0-.13-.42-.26-.84-.4-1.26-.96-1.99-1.78-4.02-1.93-6.25h.02c-.45-2.46-.34-4.92,0-7.38.34-2.79,1.39-5.34,2.78-7.78-.14-.23-.35-.31-.58-.21-1.83.82-3.81,1.31-5.56,2.33,0,0,0,0,0,0-1.41.49-2.69,1.2-3.78,2.21h0c-1.3.6-2.07,1.76-3.06,2.69-2.43,3.23-3.32,6.95-3.59,10.87-.21,3.09-.63,6.15-1.37,9.17-.12.52-.25,1.04-.37,1.56h0,0c-.37.67-.75,1.32-1.09,2-.46.9-1.11,1.47-2.19,1.1-1.15-.4-1.47-1.34-1.23-2.39.16-.68.55-1.32.89-1.95,1.23-2.33,2.27-4.7,2-7.41.13-1.07-.24-2.02-.39-3.02-.12.02-.25.04-.37.06-.04.61-.07,1.22-.11,1.83-.61.97-.59,2.26-1.57,3.05-1.51,2.28-3.56,4.1-5.38,6.12-2.3,2.56-3.6,5.53-3.5,8.97.05,1.66.35,3.31.43,4.97.1,2.01.8,4.15-1.03,5.84,0,0,0,0,0,0h0c-2.04.56-3.29-.34-3.32-2.42-.03-2.44.82-4.71,1.39-7.03.78-1.44.64-2.99.49-4.53-.11-1.13-.12-2.33-1.17-3.13-.03,0-.06,0-.1,0-.03-.12-.05-.24-.08-.36-.35-.2-.39-.78-1.11-.79.21.54.38.99.55,1.44-.03.04-.07.08-.1.12-.3,1.8-.26,3.62-.55,5.42-.17.75-.5,1.42-.87,2.1-1.09,2.01-2.23,3.99-3.13,6.09-.02.04-.04.07-.06.11-.29.49-.57.98-.94,1.42-1.12,3.16-1.2,6.3.24,9.4h-.01c.24.65.23,1.4.85,1.89h0c.2.94.73,1.7,1.36,2.41,3.72,4.85,8.03,9.19,12.4,13.46,1.17,1.14,2.3,2.29,3.06,3.73-.06.08-.1.17-.12.27.28.95-.02,1.92.13,2.87-.21.07-.26.32-.38.5-.05.1-.09.21-.13.32-.08.21-.15.42-.13.64.03.04.07.09.1.13.17,0,.34,0,.51,0,.39-.34.78-.67,1.17-1.01,0,0,0,0,0,0,1.46-.82,2.1-2.28,2.92-3.6.92-2.36.74-4.69-.24-6.98,0,0,0,.01,0,.01-.71-1.45-1.42-2.91-2.13-4.36-.4-1.25-.93-2.44-1.63-3.56h0c-.2-.88-.64-1.66-1.12-2.42,0,0,0,0,0,0-.09-.49-.24-.95-.57-1.33-.02-.17-.04-.33-.06-.5-1.19-2.12-1.58-4.49-2.18-6.8,0,0,0,0,0,0-.35-4.93.64-9.49,3.86-13.44.58-.45,1.15-.9,1.42-1.61,0,0,0,0,0,0,.43-.12.72-.37.83-.8,0,0,0,0,0,0h0s0,0,0,0c0,0,0,0,0,0h0c1.14-.46,1.67-1.62,2.68-2.23,0-.09,0-.18,0-.27,0,0,0,0,0,0,0,0,0,0,0,0,.19-.19.38-.38.57-.57,0,0,0,0,0,0,0,0,0,0,0,0,1.36-.82,2.2-2.15,3.31-3.22,1.35-1.72,1.73-3.75,1.95-5.83,1.68,3.72.86,6.99-1.88,9.92-.12.24-.22.5-.38.7-2.4,3.06-4.81,6.12-6.53,9.62-.09.26-.18.52-.27.78-.54,2.44-.86,4.87.12,7.26.02.1.05.19.12.28,1.66,4.22,4.16,7.94,7.15,11.36,1.05,1.24,2.16,2.44,3.04,3.81,0,0,0,0,0,0,0,0,0,0,0,0,.1.26.2.51.3.77.24.46.49.92.9,1.7-.04-.8-.06-1.22-.07-1.65-.25-.49-.5-.98-.74-1.46,0,0,0,0,0,0,0,0,0,0,0,0-.62-1.63-1.76-2.95-2.77-4.34,0,0,0,0,0,0-2.69-4.81-3.76-9.87-2.48-15.3.07-.01.14-.02.21-.04.6-2.79,1.79-5.31,3.52-7.6.6-.21.98-.66,1.38-1.11.11-.14.23-.26.36-.35-.17.21-.31.46-.48.66-.43.57-.38,1.3-.62,1.93-.45.45-.17,1.03-.27,1.55-.91,4.68,0,8.91,3.31,12.52.15.1.3.2.44.3.65,1.02,1.65,1.69,2.62,2.38.24.43.57.73,1.07.84,0,0,0,0,0,0h0s0,0,0,0h0c.21.24.42.49.63.73,1.39.88,2.51,2.04,3.59,3.26,1.11.88,1.7,2.11,2.21,3.35,1.37,3.3.81,6.5-.64,9.63,0,0,0,0,0,0-.82,1.17-1.63,2.35-2.45,3.52,0,.03-.02.07-.03.1.01-.03.02-.07.03-.1-.08.03-.16.06-.25.07-.19.65-.86.96-1.17,1.53,0,0,0,0,0,0,0,0,0,0,0,0-.25.21-.51.43-.76.64,0,.07-.02.14-.06.2-.02,0-.04.04-.05.11-.01.07.02.13.09.19.43-.07.82-.23,1.16-.51,0,0,0,0,0,0,.74-.36,1.49-.72,2.23-1.08,0,0,0,0,0,0,2.11-.81,3.99-2.01,5.71-3.43.82-.68,1.91-1.12,2.3-2.24h0c.64-.06.9-.6,1.22-1.01.95-1.21,1.86-2.45,2.78-3.68.04-.24.09-.47.13-.71,0,0,0,0,0,0,0,0,0,0,0,0,1.36-2.19,2.21-4.56,2.71-7.06Zm-29.31-33.76s0,.01,0,.02c0,0-.02,0-.02,0,0,0,.02-.01.02-.02,0,0,0,0,0,0,0,0,0,0,0,0,0,0,0,0,0,0h0Zm9.74-13.53s.06.08.05.13c-.02-.04-.04-.09-.05-.13Zm.74,1.85s-.02-.06-.03-.1c0,0,0,0,0,0,0,.03.01.06.02.09Zm-.26-8.05h0s0-.03-.01-.04c0,0,.01.01.02.02,0,0,0,.02-.01.02Zm10.79,30.53s0,0,0,0c0,0,0,0,0,0,0,0,0,0,.01,0,0,0,0,0,0,0h0Zm-27.93,12.43s.02.03.03.04c0,0-.02,0-.03,0v-.05Zm22.73,24.06s0,0,0,0c0,0,0,0,0,0-.03-.02-.06-.04-.1-.07,0,0,.1.06.1.06Zm-1.56,4.64c.07-.02.14-.03.21-.03-.07.01-.14.02-.21.03Zm8.1-5.76s.02-.02.02-.03c.03.03.06.06.09.09,0,0-.12-.06-.12-.06Z"/>
            <g>
              <path class="cls-10" d="m445.98,454.95c-.4.02.16.37-.05.14-.06-.07-.05-.12.05-.14Z"/>
              <path class="cls-10" d="m465.25,464.23c-.69-3.09-1.46-6.18-2.01-9.28-.76-4.26-2.14-5.06-8.44-4.6-.3.02-.6.1-.9.12-3.73.25-5.06-.47-5.31-2.96-.11-1.09-.2-2.16-.57-3.23-.47-1.39-1.67-1.88-3.69-1.9-4.89-.05-9.77-.19-14.65-.27-11.1-.2-22.21.15-33.31-.4-3.63-.18-7.31-.07-10.98.18-3.84.27-7.81.48-11.59.1-7.19-.72-14.2.25-21.27.5-.5.02-.93.12-1.28.27-2.63.06-5.26.11-7.89.14-2.02.02-3.22.51-3.69,1.9-.37,1.08-.46,2.15-.57,3.23-.25,2.49-1.58,3.21-5.31,2.96-.3-.02-.6-.1-.9-.12-6.29-.46-7.68.34-8.44,4.6-.55,3.1-1.32,6.19-2.01,9.28-.63,2.86.45,3.52,4.88,2.99.03-.08.09-.15.17-.21,2.04-2.13,2-4.6,2.45-6.97.34-1.81.69-3.58,2.15-5.17,1.31-.21,2.64-.12,3.95-.12,15.71,0,31.42,0,47.13,0,.71.12,1.5.05,2.28,0,3.15,0,53.71-.51,53.71-.51,4.16,0,8.32,0,12.49,0,1.32,0,2.64-.09,3.95.12,1.46,1.59,1.81,3.36,2.15,5.17.45,2.37.42,4.84,2.45,6.97.08.06.14.13.17.21,4.43.53,5.52-.13,4.88-2.99Zm-25.72-13.96c-4.56,0-9.12-.02-13.68-.03-2.55-.22-5.11-.24-7.66-.21-4.75-.15-9.5-.12-14.27.22-5.5.06-11,.08-16.5-.2-12.57-1.31-25.02-.29-37.47.74-.6,0-1.21,0-1.81,0-1.2,0-2.73.11-2.67-1.08.06-1.06.28-2.22,2.63-2.21,4.56.03,9.12,0,13.68.01,11.93.28,23.83-.55,35.75-.46,11.57.08,23.14.28,34.71.45,1.27.02,2.41-.1,3.38-.51,1.31,0,2.62,0,3.94-.01,2.35-.01,2.58,1.14,2.63,2.21.06,1.2-1.47,1.08-2.67,1.08Z"/>
              <path class="cls-10" d="m341.69,455.47c.09.02.11.07.05.14-.21.23.35-.12-.05-.14Z"/>
              <path class="cls-10" d="m351.6,455.52c.46-.01.92-.03,1.37-.05-.47,0-.93-.02-1.37.05Z"/>
              <path class="cls-10" d="m353.56,455.44c.24-.01.48-.03.72-.04-.12,0-.23-.01-.35-.02-.12.03-.24.05-.36.06Z"/>
            </g>
          </g>
        </g>
      </g>
    </g>
  </g>
</svg>