<svg xmlns="http://www.w3.org/2000/svg" xmlns:xlink="http://www.w3.org/1999/xlink" width="169.353" height="58.896" viewBox="0 0 169.353 58.896">
  <defs>
    <clipPath id="clip-path">
      <rect id="Rectangle_17688" data-name="Rectangle 17688" width="169.353" height="58.896" fill="#fe6603"/>
    </clipPath>
  </defs>
  <g id="Group_8072" data-name="Group 8072" transform="translate(0)">
    <g id="Group_8071" data-name="Group 8071" transform="translate(0 0)" clip-path="url(#clip-path)">
      <path id="Path_10288" data-name="Path 10288" d="M168.57,28s-30.716-1.106-50.478-1.126c-16.383.019-40.243.783-47.964,1.044h-.06c-.522.022-1.145.524-1.408,1.528,0,0-.079.261-.239.764a2.07,2.07,0,0,0-.06.2c-.163.484-.383,1.147-.726,1.971a31.372,31.372,0,0,1-4.241,7.438,40.348,40.348,0,0,1-9.407,8.885A38.066,38.066,0,0,1,39.23,54.921a27.211,27.211,0,0,1-17.267-3.015A32.6,32.6,0,0,1,8.837,38.636c-3.056-5.587-4.845-12-4.181-17.87.6-5.87,3.82-11.076,8.4-13.409,4.565-2.512,10.777-3.094,16.927-2.613,6.112.5,12.324,2.613,16.807,6.876a17.788,17.788,0,0,1,4.845,7.517,12.006,12.006,0,0,1-.424,8.4A18.193,18.193,0,0,1,38.387,38.054,12.557,12.557,0,0,1,25.38,32.848c-2.493-3.738-1.628-8.564.745-10.513a6.432,6.432,0,0,1,3.817-1.588,4.788,4.788,0,0,1,2.855.723,2.993,2.993,0,0,1,1.348,1.849c.3.685.522,1.286,1.025,1.569a.785.785,0,0,0,.905-.242A2.111,2.111,0,0,0,36.5,22.8a3.621,3.621,0,0,0-.342-1.047,5.965,5.965,0,0,0-1.909-2.311,7.072,7.072,0,0,0-4.4-1.286,9.05,9.05,0,0,0-5.508,2.091c-3.578,2.915-4.682,9.206-1.607,14.233a15.226,15.226,0,0,0,6.715,5.87,16.43,16.43,0,0,0,9.567,1.166,21.693,21.693,0,0,0,15.8-12.444c.12-.261.22-.5.321-.764a16,16,0,0,0,.462-10.353,22.163,22.163,0,0,0-5.829-9.407C44.458,3.317,37.18.824,30.386.221a45.46,45.46,0,0,0-10.07.122,27.264,27.264,0,0,0-9.488,2.915,19.506,19.506,0,0,0-7.4,7.036A23.519,23.519,0,0,0,.132,20.3c-.7,7.156,1.487,14.273,4.964,20.423A36.461,36.461,0,0,0,20.152,55.383,30.945,30.945,0,0,0,39.833,58.4a40.579,40.579,0,0,0,15.921-7.156,42.586,42.586,0,0,0,9.872-9.79c.6-.826,1.126-1.65,1.607-2.433,3.417.12,29.069,1.085,45.976,1.106C131.361,40.1,159.563,39,159.563,39c.965-.062.946-2.333,0-2.392,0,0-28.2-1.126-46.354-1.147-15.48.022-38.277.845-44.649,1.085a31.685,31.685,0,0,0,1.408-3.276c.4-1.025.623-1.83.783-2.371.041-.16.081-.283.1-.383,8.384.283,31.341.987,47.241,1.006C137.854,31.5,168.57,30.4,168.57,30.4c1.066-.041,1.025-2.333,0-2.392" transform="translate(0 0)" fill="#fe6603"/>
    </g>
  </g>
</svg>
