<svg id="Group_8073" data-name="Group 8073" xmlns="http://www.w3.org/2000/svg" xmlns:xlink="http://www.w3.org/1999/xlink" width="169.353" height="58.896" viewBox="0 0 169.353 58.896">
  <defs>
    <clipPath id="clip-path">
      <rect id="Rectangle_17688" data-name="Rectangle 17688" width="169.353" height="58.896" fill="#fe6603"/>
    </clipPath>
  </defs>
  <g id="Group_8071" data-name="Group 8071" transform="translate(0 0)" clip-path="url(#clip-path)">
    <path id="Path_10288" data-name="Path 10288" d="M.784,28S31.5,26.9,51.263,26.877c16.383.019,40.243.783,47.964,1.044h.06c.522.022,1.145.524,1.408,1.528,0,0,.079.261.239.764a2.07,2.07,0,0,1,.06.2c.163.484.383,1.147.726,1.971a31.372,31.372,0,0,0,4.241,7.438,40.348,40.348,0,0,0,9.407,8.885,38.066,38.066,0,0,0,14.757,6.212,27.211,27.211,0,0,0,17.267-3.015,32.6,32.6,0,0,0,13.126-13.27c3.056-5.587,4.845-12,4.181-17.87-.6-5.87-3.82-11.076-8.4-13.409-4.565-2.512-10.777-3.094-16.927-2.613-6.112.5-12.324,2.613-16.807,6.876a17.788,17.788,0,0,0-4.845,7.517,12.006,12.006,0,0,0,.424,8.4,18.193,18.193,0,0,0,12.824,10.513,12.557,12.557,0,0,0,13.006-5.206c2.493-3.738,1.628-8.564-.745-10.513a6.432,6.432,0,0,0-3.817-1.588,4.788,4.788,0,0,0-2.855.723,2.993,2.993,0,0,0-1.348,1.849c-.3.685-.522,1.286-1.025,1.569a.785.785,0,0,1-.905-.242,2.111,2.111,0,0,1-.421-1.849,3.62,3.62,0,0,1,.342-1.047,5.965,5.965,0,0,1,1.909-2.311,7.072,7.072,0,0,1,4.4-1.286,9.05,9.05,0,0,1,5.508,2.091c3.578,2.915,4.682,9.206,1.607,14.233a15.226,15.226,0,0,1-6.715,5.87,16.43,16.43,0,0,1-9.567,1.166,21.692,21.692,0,0,1-15.8-12.444c-.12-.261-.22-.5-.321-.764a16,16,0,0,1-.462-10.353,22.163,22.163,0,0,1,5.829-9.407C124.9,3.317,132.174.824,138.969.221a45.46,45.46,0,0,1,10.07.122,27.264,27.264,0,0,1,9.488,2.915,19.506,19.506,0,0,1,7.4,7.036,23.519,23.519,0,0,1,3.3,10.01c.7,7.156-1.487,14.273-4.965,20.423A36.461,36.461,0,0,1,149.2,55.383,30.945,30.945,0,0,1,129.521,58.4,40.579,40.579,0,0,1,113.6,51.243a42.586,42.586,0,0,1-9.872-9.79c-.6-.826-1.126-1.65-1.607-2.433-3.417.12-29.069,1.085-45.976,1.106C37.993,40.1,9.791,39,9.791,39c-.965-.062-.946-2.333,0-2.392,0,0,28.2-1.126,46.354-1.147,15.48.022,38.277.845,44.649,1.085a31.685,31.685,0,0,1-1.408-3.276c-.4-1.025-.623-1.83-.783-2.371-.041-.16-.081-.283-.1-.383-8.384.283-31.341.987-47.241,1.006C31.5,31.5.784,30.4.784,30.4-.282,30.355-.241,28.063.784,28" transform="translate(-0.001 0)" fill="#fe6603"/>
  </g>
</svg>
